<?xml version="1.0" encoding="UTF-8"?><svg id="a" xmlns="http://www.w3.org/2000/svg" viewBox="0 0 607.95 120.79"><defs><style>.b{fill:#fff;}</style></defs><g><path class="b" d="M73.75,120.79H36.24c-7.82,0-10.14-4.08-11.67-6.78-.87-1.53-1.37-2.35-2.49-2.99l-1.48-.83c-8.97-5.03-19.13-10.72-19.13-28.62,0-2.14,1.73-3.87,3.87-3.87H104.65c2.14,0,3.87,1.73,3.87,3.87,0,17.89-10.16,23.59-19.13,28.62l-1.48,.83c-1.12,.64-1.62,1.46-2.49,2.99-1.53,2.7-3.85,6.78-11.67,6.78ZM9.42,85.44c1.2,10.28,7.37,13.74,14.96,18l1.51,.85c3.03,1.72,4.4,4.13,5.4,5.9,1.25,2.2,1.62,2.86,4.94,2.86h37.52c3.32,0,3.7-.66,4.94-2.86,1-1.76,2.37-4.18,5.4-5.9l1.51-.85c7.59-4.26,13.76-7.72,14.96-18H9.42Z"/><path class="b" d="M10.61,73.24c-3.26-7.84-4.49-17.07-3.09-25.75,1.93,5.11,5.93,9.23,11.2,10.83,0,0,13.52,4.23,13.52,4.23,5.33,1.89,5.7,5.96,5.65,10.69h40.62c2.75-9.38-3.9-20.03-14.05-20.24-14.71-.04-10.2,1.16-23.36-5.45-2.22-1.03-1.67-5.08,1.22-4.12l5.19,1.74c7.15,2.35,12.96-6.17,8.17-11.97,0,0-3.84-4.61-3.84-4.61-.54-.64-.54-1.76,0-2.21l4.33-5.03c3.87-4.59,2.75-9.87-.41-14.48,16.62,.26,31.19,8.96,39.62,22l-8.19,3.28c-5.06,2.04-7.68,7.66-5.94,12.83,5.49,16.24,3.35,16.14,20.72,20.05-.61,2.84-1.48,5.58-2.57,8.21h7.38C119.56,38.3,92.54-.44,54.99,0,17.44-.44-9.57,38.3,3.22,73.24h7.39Z"/></g><g><path class="b" d="M136.44,98.98l10.13-17.31,.56,.14c2.81,17.31,14.78,27.72,26.74,27.72,11.12,0,19.7-9.29,19.7-20.13,0-9.14-6.17-15.3-13.54-19.8-6.89-4.21-14.48-7.18-21.47-11.23-4.53-2.62-8.86-5.77-12.29-9.77-3.77-4.39-5.47-9.13-5.47-14.93,.14-14.64,11.96-23.92,30.12-23.92,13.37,0,24.49,4.64,33.35,14.07l-8.58,18.58-.42-.14c-3.94-17.45-14.35-28.15-28.57-28.15-10.13,0-17.45,5.63-17.45,14.64,0,7.32,4.71,11.91,10.23,15.97,6.03,4.44,12.89,7.56,19.56,10.9,12.09,6.07,26.08,14.44,26.08,29.7,0,18.86-17.87,27.87-34.62,27.87-13.79,0-25.19-4.79-34.06-14.21Z"/><path class="b" d="M365.55,98.98l10.13-17.31,.56,.14c2.81,17.31,14.78,27.72,26.74,27.72,11.12,0,19.7-9.29,19.7-20.13,0-9.14-6.17-15.3-13.54-19.8-6.89-4.21-14.48-7.18-21.47-11.23-4.53-2.62-8.86-5.77-12.29-9.77-3.77-4.39-5.47-9.13-5.47-14.93,.14-14.64,11.96-23.92,30.12-23.92,13.37,0,24.49,4.64,33.35,14.07l-8.58,18.58-.42-.14c-3.94-17.45-14.35-28.15-28.57-28.15-10.13,0-17.45,5.63-17.45,14.64,0,7.32,4.71,11.91,10.23,15.97,6.03,4.44,12.89,7.56,19.56,10.9,12.09,6.07,26.08,14.44,26.08,29.7,0,18.86-17.87,27.87-34.62,27.87-13.79,0-25.19-4.79-34.06-14.21Z"/><path class="b" d="M204.97,11.03h26.18v.42c-1.41,5.77,.56,13.09,4.93,21.25,5.35,9.85,11.12,19.56,17.03,28.99l18.44-30.96c5.49-10.56,2.81-16.47-5.21-19.28v-.42h26.88v.42c-3.24,1.13-6.47,3.8-10.41,8.87-8.87,11.26-15.9,23.92-22.8,36.31-2.67,4.78-4.5,8.02-5.49,9.71,.14,22.66,2.11,37.29,5.63,44.19v.42h-19.84v-.42c3.8-8.02,5.21-21.39,4.22-40.11-6.76-18.72-24.06-46.3-39.55-58.97v-.42Z"/><path class="b" d="M298.42,110.95v-.42c4.64-9.71,7.04-25.89,7.04-48.83s-2.39-40.53-7.04-50.24v-.42h60.8l1.69,24.07h-.42c-3.52-9.43-8.16-14.21-20.55-17.31-6.19-1.55-14.5-2.53-24.91-2.67-.7,14.5-1.13,28.99-1.13,43.77h1.55c17.17,0,27.87-2.39,32.09-7.04h.42v17.31h-.42c-4.08-4.08-14.92-6.19-32.37-6.19h-1.27c0,12.95,.56,22.94,1.69,30.12,1.13,7.18,3.24,12.95,6.75,17.45v.42h-23.92Z"/><path class="b" d="M440.72,60.65c.12-29.55,20.62-51.99,50.73-51.87,30.26,.12,50.43,22.44,50.31,52.27-.12,29.55-20.61,51.99-50.73,51.87-29.98-.12-50.43-22.86-50.31-52.27Zm34.74,39.69c6.87,5.23,14.46,7.8,22.49,7.83,21.95,.09,31.74-20,31.82-39.42,.06-14.64-4.39-27.46-13.21-38.61-8.82-11.15-19.64-16.69-31.88-16.73-21.95-.09-31.46,20.14-31.54,39.42-.08,19.14,8.43,37.33,22.33,47.52Z"/><path class="b" d="M545.16,111.03v-.42c4.68-9.69,7.14-25.87,7.23-48.81s-2.23-40.54-6.83-50.27v-.42s60.8,.24,60.8,.24l1.59,24.07h-.42c-3.48-9.44-8.1-14.25-20.48-17.39-6.19-1.57-14.48-2.59-24.9-2.77-.76,14.49-1.24,28.99-1.3,43.76h1.55c17.17,.08,27.87-2.27,32.11-6.9h.42s-.07,17.31-.07,17.31h-.42c-4.06-4.1-14.89-6.25-32.34-6.32h-1.27c-.05,12.94,.47,22.94,1.57,30.12,1.1,7.18,3.19,12.96,6.68,17.48v.42s-23.93-.1-23.93-.1Z"/></g></svg>